<svg xmlns="http://www.w3.org/2000/svg" xmlns:xlink="http://www.w3.org/1999/xlink" xmlns:lucid="lucid" width="1204.5" height="699"><g transform="translate(-160 -60)" lucid:page-tab-id="0_0"><path d="M580 206a6 6 0 0 1 6-6h338a6 6 0 0 1 6 6v353a6 6 0 0 1-6 6H586a6 6 0 0 1-6-6z" fill="#fff"/><path d="M580 276v38h350v-38M580 349v37h350v-37M580 421v37h350v-37M580 493v37h350v-37" fill="#fff3d9"/><path d="M580 240v-34a6 6 0 0 1 6-6h338a6 6 0 0 1 6 6v34" fill="#fc9432"/><path d="M580 206a6 6 0 0 1 6-6h338a6 6 0 0 1 6 6v353a6 6 0 0 1-6 6H586a6 6 0 0 1-6-6zM580 240h350" stroke="#5e5e5e" stroke-width="3" fill="none"/><use xlink:href="#a" transform="matrix(1,0,0,1,590,200) translate(115.03086419753086 24.444444444444443)"/><use xlink:href="#b" transform="matrix(1,0,0,1,585,242.5) translate(0 19.766666666666666)"/><use xlink:href="#c" transform="matrix(1,0,0,1,585,242.5) translate(119.5851851851852 19.766666666666666)"/><use xlink:href="#d" transform="matrix(1,0,0,1,585,242.5) translate(269.9259259259259 19.766666666666666)"/><use xlink:href="#e" transform="matrix(1,0,0,1,585,278.5) translate(0 20.444444444444443)"/><use xlink:href="#f" transform="matrix(1,0,0,1,585,278.5) translate(263.27160493827154 20.444444444444443)"/><use xlink:href="#g" transform="matrix(1,0,0,1,585,315.5) translate(0 19.766666666666666)"/><use xlink:href="#d" transform="matrix(1,0,0,1,585,315.5) translate(271.28888888888883 19.766666666666666)"/><use xlink:href="#h" transform="matrix(1,0,0,1,585,351.5) translate(0 19.766666666666666)"/><use xlink:href="#f" transform="matrix(1,0,0,1,585,351.5) translate(268.91851851851845 19.766666666666666)"/><use xlink:href="#i" transform="matrix(1,0,0,1,585,387.5) translate(0 19.766666666666666)"/><use xlink:href="#d" transform="matrix(1,0,0,1,585,387.5) translate(270.1629629629629 19.766666666666666)"/><use xlink:href="#j" transform="matrix(1,0,0,1,585,423.5) translate(0 19.766666666666666)"/><use xlink:href="#d" transform="matrix(1,0,0,1,585,423.5) translate(270.0444444444444 19.766666666666666)"/><use xlink:href="#k" transform="matrix(1,0,0,1,585,459.5) translate(0 19.766666666666666)"/><use xlink:href="#d" transform="matrix(1,0,0,1,585,459.5) translate(272.47407407407405 19.766666666666666)"/><use xlink:href="#l" transform="matrix(1,0,0,1,585,495.5) translate(0 19.766666666666666)"/><use xlink:href="#f" transform="matrix(1,0,0,1,585,495.5) translate(268.91851851851845 19.766666666666666)"/><use xlink:href="#m" transform="matrix(1,0,0,1,585,531.5) translate(0 19.766666666666666)"/><use xlink:href="#f" transform="matrix(1,0,0,1,585,531.5) translate(266.6074074074074 19.766666666666666)"/><path d="M180 86a6 6 0 0 1 6-6h288a6 6 0 0 1 6 6v213a6 6 0 0 1-6 6H186a6 6 0 0 1-6-6z" fill="#fff"/><path d="M180 157v38h300v-38M180 231v38h300v-38" fill="#fff3d9"/><path d="M180 120V86a6 6 0 0 1 6-6h288a6 6 0 0 1 6 6v34" fill="#fc9432"/><path d="M180 86a6 6 0 0 1 6-6h288a6 6 0 0 1 6 6v213a6 6 0 0 1-6 6H186a6 6 0 0 1-6-6zM180 120h300" stroke="#5e5e5e" stroke-width="3" fill="none"/><use xlink:href="#n" transform="matrix(1,0,0,1,190,80) translate(112.87037037037038 24.444444444444443)"/><use xlink:href="#o" transform="matrix(1,0,0,1,185,122.5) translate(0 20.444444444444443)"/><use xlink:href="#p" transform="matrix(1,0,0,1,185,122.5) translate(78.88888888888889 20.444444444444443)"/><use xlink:href="#q" transform="matrix(1,0,0,1,185,122.5) translate(216.97530864197526 20.444444444444443)"/><use xlink:href="#r" transform="matrix(1,0,0,1,185,159.5) translate(0 20.444444444444443)"/><use xlink:href="#s" transform="matrix(1,0,0,1,185,159.5) translate(214.62962962962956 20.444444444444443)"/><use xlink:href="#t" transform="matrix(1,0,0,1,185,196.5) translate(0 20.444444444444443)"/><use xlink:href="#s" transform="matrix(1,0,0,1,185,196.5) translate(213.4567901234567 20.444444444444443)"/><use xlink:href="#u" transform="matrix(1,0,0,1,185,233.5) translate(0 20.444444444444443)"/><use xlink:href="#v" transform="matrix(1,0,0,1,185,233.5) translate(241.91358024691345 20.444444444444443)"/><use xlink:href="#w" transform="matrix(1,0,0,1,185,270.5) translate(0 20.444444444444443)"/><use xlink:href="#s" transform="matrix(1,0,0,1,185,270.5) translate(212.22222222222211 20.444444444444443)"/><path d="M1020 86a6 6 0 0 1 6-6h288a6 6 0 0 1 6 6v213a6 6 0 0 1-6 6h-288a6 6 0 0 1-6-6z" fill="#fff"/><path d="M1020 157v38h300v-38M1020 231v38h300v-38" fill="#fff3d9"/><path d="M1020 120V86a6 6 0 0 1 6-6h288a6 6 0 0 1 6 6v34" fill="#fc9432"/><path d="M1020 86a6 6 0 0 1 6-6h288a6 6 0 0 1 6 6v213a6 6 0 0 1-6 6h-288a6 6 0 0 1-6-6zM1020 120h300" stroke="#5e5e5e" stroke-width="3" fill="none"/><use xlink:href="#x" transform="matrix(1,0,0,1,1030,80) translate(110.37037037037038 24.444444444444443)"/><use xlink:href="#y" transform="matrix(1,0,0,1,1025,122.5) translate(0 20.444444444444443)"/><use xlink:href="#z" transform="matrix(1,0,0,1,1025,122.5) translate(83.88888888888889 20.444444444444443)"/><use xlink:href="#q" transform="matrix(1,0,0,1,1025,122.5) translate(215.80246913580243 20.444444444444443)"/><use xlink:href="#A" transform="matrix(1,0,0,1,1025,159.5) translate(0 20.444444444444443)"/><use xlink:href="#s" transform="matrix(1,0,0,1,1025,159.5) translate(213.4567901234567 20.444444444444443)"/><use xlink:href="#B" transform="matrix(1,0,0,1,1025,196.5) translate(0 20.444444444444443)"/><use xlink:href="#q" transform="matrix(1,0,0,1,1025,196.5) translate(219.5679012345678 20.444444444444443)"/><use xlink:href="#C" transform="matrix(1,0,0,1,1025,233.5) translate(0 20.444444444444443)"/><use xlink:href="#q" transform="matrix(1,0,0,1,1025,233.5) translate(222.1604938271604 20.444444444444443)"/><use xlink:href="#D" transform="matrix(1,0,0,1,1025,270.5) translate(0 20.444444444444443)"/><use xlink:href="#E" transform="matrix(1,0,0,1,1025,270.5) translate(246.79012345679 20.444444444444443)"/><path d="M1020 446a6 6 0 0 1 6-6h288a6 6 0 0 1 6 6v211a6 6 0 0 1-6 6h-288a6 6 0 0 1-6-6z" fill="#fff"/><path d="M1020 517v38h300v-38M1020 591v37h300v-37" fill="#fff3d9"/><path d="M1020 480v-34a6 6 0 0 1 6-6h288a6 6 0 0 1 6 6v34" fill="#fc9432"/><path d="M1020 446a6 6 0 0 1 6-6h288a6 6 0 0 1 6 6v211a6 6 0 0 1-6 6h-288a6 6 0 0 1-6-6zM1020 480h300" stroke="#5e5e5e" stroke-width="3" fill="none"/><use xlink:href="#F" transform="matrix(1,0,0,1,1030,440) translate(110.4320987654321 24.444444444444443)"/><use xlink:href="#G" transform="matrix(1,0,0,1,1025,482.5) translate(0 20.444444444444443)"/><use xlink:href="#p" transform="matrix(1,0,0,1,1025,482.5) translate(83.76543209876543 20.444444444444443)"/><use xlink:href="#q" transform="matrix(1,0,0,1,1025,482.5) translate(221.8518518518518 20.444444444444443)"/><use xlink:href="#H" transform="matrix(1,0,0,1,1025,519.5) translate(0 20.444444444444443)"/><use xlink:href="#s" transform="matrix(1,0,0,1,1025,519.5) translate(215.98765432098756 20.444444444444443)"/><use xlink:href="#I" transform="matrix(1,0,0,1,1025,556.5) translate(0 20.444444444444443)"/><use xlink:href="#s" transform="matrix(1,0,0,1,1025,556.5) translate(212.22222222222214 20.444444444444443)"/><use xlink:href="#J" transform="matrix(1,0,0,1,1025,593.5) translate(0 19.766666666666666)"/><use xlink:href="#K" transform="matrix(1,0,0,1,1025,593.5) translate(246.39999999999995 19.766666666666666)"/><use xlink:href="#L" transform="matrix(1,0,0,1,1025,629.5) translate(0 19.766666666666666)"/><use xlink:href="#K" transform="matrix(1,0,0,1,1025,629.5) translate(246.39999999999995 19.766666666666666)"/><path d="M180 446a6 6 0 0 1 6-6h288a6 6 0 0 1 6 6v287a6 6 0 0 1-6 6H186a6 6 0 0 1-6-6z" fill="#fff"/><path d="M180 517v38h300v-38M180 591v38h300v-38M180 665v38h300v-38" fill="#fff3d9"/><path d="M180 480v-34a6 6 0 0 1 6-6h288a6 6 0 0 1 6 6v34" fill="#fc9432"/><path d="M180 446a6 6 0 0 1 6-6h288a6 6 0 0 1 6 6v287a6 6 0 0 1-6 6H186a6 6 0 0 1-6-6zM180 480h300" stroke="#5e5e5e" stroke-width="3" fill="none"/><use xlink:href="#M" transform="matrix(1,0,0,1,190,440) translate(119.07407407407408 24.444444444444443)"/><use xlink:href="#N" transform="matrix(1,0,0,1,185,482.5) translate(0 20.444444444444443)"/><use xlink:href="#O" transform="matrix(1,0,0,1,185,482.5) translate(103.5185185185185 20.444444444444443)"/><use xlink:href="#P" transform="matrix(1,0,0,1,185,482.5) translate(186.04938271604937 20.444444444444443)"/><use xlink:href="#Q" transform="matrix(1,0,0,1,185,519.5) translate(0 20.444444444444443)"/><use xlink:href="#q" transform="matrix(1,0,0,1,185,519.5) translate(217.22222222222211 20.444444444444443)"/><use xlink:href="#R" transform="matrix(1,0,0,1,185,556.5) translate(0 20.444444444444443)"/><use xlink:href="#q" transform="matrix(1,0,0,1,185,556.5) translate(220.98765432098756 20.444444444444443)"/><use xlink:href="#S" transform="matrix(1,0,0,1,185,593.5) translate(0 20.444444444444443)"/><use xlink:href="#q" transform="matrix(1,0,0,1,185,593.5) translate(218.4567901234567 20.444444444444443)"/><use xlink:href="#T" transform="matrix(1,0,0,1,185,630.5) translate(0 20.444444444444443)"/><use xlink:href="#q" transform="matrix(1,0,0,1,185,630.5) translate(222.1604938271604 20.444444444444443)"/><use xlink:href="#C" transform="matrix(1,0,0,1,185,667.5) translate(0 20.444444444444443)"/><use xlink:href="#U" transform="matrix(1,0,0,1,185,667.5) translate(222.1604938271604 20.444444444444443)"/><use xlink:href="#V" transform="matrix(1,0,0,1,185,704.5) translate(0 20.444444444444443)"/><use xlink:href="#s" transform="matrix(1,0,0,1,185,704.5) translate(211.0493827160493 20.444444444444443)"/><path d="M1341.5 498.5h14a6 6 0 0 0 6-6v-274a6 6 0 0 0-6-6h-15.18" stroke="#5e5e5e" stroke-width="2" fill="none"/><path d="M1331.5 508.5v-20M1321.5 498.5h20M1341.5 508.5v-20" stroke="#5e5e5e" stroke-width="2" fill="#fff"/><path d="M1321.95 202.5l20 10-20 10" stroke="#5e5e5e" stroke-width="2" fill="#fff" fill-opacity="0"/><path d="M1321.95 212.5h20" stroke="#5e5e5e" stroke-width="2" fill="#fff"/><path d="M998.5 138.5H981a6 6 0 0 0-6 6V397a6 6 0 0 1-6 6h-17.5" stroke="#5e5e5e" stroke-width="2" fill="none"/><path d="M1008.5 128.5v20M1018.5 138.5h-20M998.5 128.5v20" stroke="#5e5e5e" stroke-width="2" fill="#fff"/><path d="M931.95 393l20 10-20 10" stroke="#5e5e5e" stroke-width="2" fill="#fff" fill-opacity="0"/><path d="M931.95 403h20M951.95 413v-20" stroke="#5e5e5e" stroke-width="2" fill="#fff"/><path d="M501.5 138.5H524a6 6 0 0 1 6 6V325a6 6 0 0 0 6 6h22.5" stroke="#5e5e5e" stroke-width="2" fill="none"/><path d="M491.5 148.5v-20M481.5 138.5h20M501.5 148.5v-20" stroke="#5e5e5e" stroke-width="2" fill="#fff"/><path d="M578.05 341l-20-10 20-10" stroke="#5e5e5e" stroke-width="2" fill="#fff" fill-opacity="0"/><path d="M578.05 331h-20M558.05 321v20" stroke="#5e5e5e" stroke-width="2" fill="#fff"/><path d="M501.5 498.5H524a6 6 0 0 0 6-6v-192a6 6 0 0 1 6-6h22.5" stroke="#5e5e5e" stroke-width="2" fill="none"/><path d="M491.5 508.5v-20M481.5 498.5h20M501.5 508.5v-20" stroke="#5e5e5e" stroke-width="2" fill="#fff"/><path d="M578.05 304.5l-20-10 20-10" stroke="#5e5e5e" stroke-width="2" fill="#fff" fill-opacity="0"/><path d="M578.05 294.5h-20M558.05 284.5v20" stroke="#5e5e5e" stroke-width="2" fill="#fff"/><path d="M998.5 498.5H981a6 6 0 0 1-6-6V445a6 6 0 0 0-6-6h-17.5" stroke="#5e5e5e" stroke-width="2" fill="none"/><path d="M1008.5 488.5v20M1018.5 498.5h-20M998.5 488.5v20" stroke="#5e5e5e" stroke-width="2" fill="#fff"/><path d="M931.95 429l20 10-20 10" stroke="#5e5e5e" stroke-width="2" fill="#fff" fill-opacity="0"/><path d="M931.95 439h20M951.95 449v-20" stroke="#5e5e5e" stroke-width="2" fill="#fff"/><defs><path fill="#333" d="M135-143c-3-34-86-38-87 0 15 53 115 12 119 90S17 21 10-45l28-5c4 36 97 45 98 0-10-56-113-15-118-90-4-57 82-63 122-42 12 7 21 19 24 35" id="W"/><path fill="#333" d="M100-194c62-1 85 37 85 99 1 63-27 99-86 99S16-35 15-95c0-66 28-99 85-99zM99-20c44 1 53-31 53-75 0-43-8-75-51-75s-53 32-53 75 10 74 51 75" id="X"/><path fill="#333" d="M117-194c89-4 53 116 60 194h-32v-121c0-31-8-49-39-48C34-167 62-67 57 0H25l-1-190h30c1 10-1 24 2 32 11-22 29-35 61-36" id="Y"/><path fill="#333" d="M177-190C167-65 218 103 67 71c-23-6-38-20-44-43l32-5c15 47 100 32 89-28v-30C133-14 115 1 83 1 29 1 15-40 15-95c0-56 16-97 71-98 29-1 48 16 59 35 1-10 0-23 2-32h30zM94-22c36 0 50-32 50-73 0-42-14-75-50-75-39 0-46 34-46 75s6 73 46 73" id="Z"/><path fill="#333" d="M115-194c55 1 70 41 70 98S169 2 115 4C84 4 66-9 55-30l1 105H24l-1-265h31l2 30c10-21 28-34 59-34zm-8 174c40 0 45-34 45-75s-6-73-45-74c-42 0-51 32-51 76 0 43 10 73 51 73" id="aa"/><path fill="#333" d="M24 0v-261h32V0H24" id="ab"/><path fill="#333" d="M141-36C126-15 110 5 73 4 37 3 15-17 15-53c-1-64 63-63 125-63 3-35-9-54-41-54-24 1-41 7-42 31l-33-3c5-37 33-52 76-52 45 0 72 20 72 64v82c-1 20 7 32 28 27v20c-31 9-61-2-59-35zM48-53c0 20 12 33 32 33 41-3 63-29 60-74-43 2-92-5-92 41" id="ac"/><path fill="#333" d="M179-190L93 31C79 59 56 82 12 73V49c39 6 53-20 64-50L1-190h34L92-34l54-156h33" id="ad"/><g id="a"><use transform="matrix(0.06172839506172839,0,0,0.06172839506172839,0,0)" xlink:href="#W"/><use transform="matrix(0.06172839506172839,0,0,0.06172839506172839,11.11111111111111,0)" xlink:href="#X"/><use transform="matrix(0.06172839506172839,0,0,0.06172839506172839,23.45679012345679,0)" xlink:href="#Y"/><use transform="matrix(0.06172839506172839,0,0,0.06172839506172839,35.80246913580247,0)" xlink:href="#Z"/><use transform="matrix(0.06172839506172839,0,0,0.06172839506172839,48.148148148148145,0)" xlink:href="#aa"/><use transform="matrix(0.06172839506172839,0,0,0.06172839506172839,60.49382716049382,0)" xlink:href="#ab"/><use transform="matrix(0.06172839506172839,0,0,0.06172839506172839,65.37037037037037,0)" xlink:href="#ac"/><use transform="matrix(0.06172839506172839,0,0,0.06172839506172839,77.71604938271605,0)" xlink:href="#ad"/><use transform="matrix(0.06172839506172839,0,0,0.06172839506172839,88.82716049382717,0)" xlink:href="#W"/></g><path d="M135-143c-3-34-86-38-87 0 15 53 115 12 119 90S17 21 10-45l28-5c4 36 97 45 98 0-10-56-113-15-118-90-4-57 82-63 122-42 12 7 21 19 24 35" id="ae"/><path d="M100-194c62-1 85 37 85 99 1 63-27 99-86 99S16-35 15-95c0-66 28-99 85-99zM99-20c44 1 53-31 53-75 0-43-8-75-51-75s-53 32-53 75 10 74 51 75" id="af"/><path d="M117-194c89-4 53 116 60 194h-32v-121c0-31-8-49-39-48C34-167 62-67 57 0H25l-1-190h30c1 10-1 24 2 32 11-22 29-35 61-36" id="ag"/><path d="M177-190C167-65 218 103 67 71c-23-6-38-20-44-43l32-5c15 47 100 32 89-28v-30C133-14 115 1 83 1 29 1 15-40 15-95c0-56 16-97 71-98 29-1 48 16 59 35 1-10 0-23 2-32h30zM94-22c36 0 50-32 50-73 0-42-14-75-50-75-39 0-46 34-46 75s6 73 46 73" id="ah"/><path d="M115-194c55 1 70 41 70 98S169 2 115 4C84 4 66-9 55-30l1 105H24l-1-265h31l2 30c10-21 28-34 59-34zm-8 174c40 0 45-34 45-75s-6-73-45-74c-42 0-51 32-51 76 0 43 10 73 51 73" id="ai"/><path d="M24 0v-261h32V0H24" id="aj"/><path d="M141-36C126-15 110 5 73 4 37 3 15-17 15-53c-1-64 63-63 125-63 3-35-9-54-41-54-24 1-41 7-42 31l-33-3c5-37 33-52 76-52 45 0 72 20 72 64v82c-1 20 7 32 28 27v20c-31 9-61-2-59-35zM48-53c0 20 12 33 32 33 41-3 63-29 60-74-43 2-92-5-92 41" id="ak"/><path d="M179-190L93 31C79 59 56 82 12 73V49c39 6 53-20 64-50L1-190h34L92-34l54-156h33" id="al"/><path d="M-5 72V49h209v23H-5" id="am"/><path d="M24-231v-30h32v30H24zM24 0v-190h32V0H24" id="an"/><path d="M85-194c31 0 48 13 60 33l-1-100h32l1 261h-30c-2-10 0-23-3-31C134-8 116 4 85 4 32 4 16-35 15-94c0-66 23-100 70-100zm9 24c-40 0-46 34-46 75 0 40 6 74 45 74 42 0 51-32 51-76 0-42-9-74-50-73" id="ao"/><g id="b"><use transform="matrix(0.05925925925925927,0,0,0.05925925925925927,0,0)" xlink:href="#ae"/><use transform="matrix(0.05925925925925927,0,0,0.05925925925925927,10.666666666666668,0)" xlink:href="#af"/><use transform="matrix(0.05925925925925927,0,0,0.05925925925925927,22.51851851851852,0)" xlink:href="#ag"/><use transform="matrix(0.05925925925925927,0,0,0.05925925925925927,34.370370370370374,0)" xlink:href="#ah"/><use transform="matrix(0.05925925925925927,0,0,0.05925925925925927,46.22222222222223,0)" xlink:href="#ai"/><use transform="matrix(0.05925925925925927,0,0,0.05925925925925927,58.07407407407408,0)" xlink:href="#aj"/><use transform="matrix(0.05925925925925927,0,0,0.05925925925925927,62.75555555555557,0)" xlink:href="#ak"/><use transform="matrix(0.05925925925925927,0,0,0.05925925925925927,74.60740740740742,0)" xlink:href="#al"/><use transform="matrix(0.05925925925925927,0,0,0.05925925925925927,85.2740740740741,0)" xlink:href="#am"/><use transform="matrix(0.05925925925925927,0,0,0.05925925925925927,97.12592592592594,0)" xlink:href="#an"/><use transform="matrix(0.05925925925925927,0,0,0.05925925925925927,101.80740740740742,0)" xlink:href="#ao"/></g><path d="M67-93c0 74 22 123 53 168H70C40 30 18-18 18-93s22-123 52-168h50c-32 44-53 94-53 168" id="ap"/><path d="M24-248c93 1 206-16 204 79-1 75-69 88-152 82V0H24v-248zm52 121c47 0 100 7 100-41 0-47-54-39-100-39v80" id="aq"/><path d="M195 0l-88-114-31 24V0H24v-248h52v113l112-113h60L142-143 257 0h-62" id="ar"/><path d="M102-93c0 74-22 123-52 168H0C30 29 54-18 53-93c0-74-22-123-53-168h50c30 45 52 94 52 168" id="as"/><g id="c"><use transform="matrix(0.05925925925925927,0,0,0.05925925925925927,0,0)" xlink:href="#ap"/><use transform="matrix(0.05925925925925927,0,0,0.05925925925925927,7.051851851851853,0)" xlink:href="#aq"/><use transform="matrix(0.05925925925925927,0,0,0.05925925925925927,21.27407407407408,0)" xlink:href="#ar"/><use transform="matrix(0.05925925925925927,0,0,0.05925925925925927,36.62222222222223,0)" xlink:href="#as"/></g><path d="M59-47c-2 24 18 29 38 22v24C64 9 27 4 27-40v-127H5v-23h24l9-43h21v43h35v23H59v120" id="at"/><path d="M100-194c63 0 86 42 84 106H49c0 40 14 67 53 68 26 1 43-12 49-29l28 8c-11 28-37 45-77 45C44 4 14-33 15-96c1-61 26-98 85-98zm52 81c6-60-76-77-97-28-3 7-6 17-6 28h103" id="au"/><path d="M114-163C36-179 61-72 57 0H25l-1-190h30c1 12-1 29 2 39 6-27 23-49 58-41v29" id="av"/><g id="d"><use transform="matrix(0.05925925925925927,0,0,0.05925925925925927,0,0)" xlink:href="#an"/><use transform="matrix(0.05925925925925927,0,0,0.05925925925925927,4.681481481481482,0)" xlink:href="#ag"/><use transform="matrix(0.05925925925925927,0,0,0.05925925925925927,16.533333333333335,0)" xlink:href="#at"/><use transform="matrix(0.05925925925925927,0,0,0.05925925925925927,22.459259259259262,0)" xlink:href="#au"/><use transform="matrix(0.05925925925925927,0,0,0.05925925925925927,34.31111111111112,0)" xlink:href="#ah"/><use transform="matrix(0.05925925925925927,0,0,0.05925925925925927,46.16296296296297,0)" xlink:href="#au"/><use transform="matrix(0.05925925925925927,0,0,0.05925925925925927,58.01481481481483,0)" xlink:href="#av"/></g><path fill="#333" d="M59-47c-2 24 18 29 38 22v24C64 9 27 4 27-40v-127H5v-23h24l9-43h21v43h35v23H59v120" id="aw"/><path fill="#333" d="M114-163C36-179 61-72 57 0H25l-1-190h30c1 12-1 29 2 39 6-27 23-49 58-41v29" id="ax"/><path fill="#333" d="M-5 72V49h209v23H-5" id="ay"/><path fill="#333" d="M24-231v-30h32v30H24zM24 0v-190h32V0H24" id="az"/><path fill="#333" d="M210-169c-67 3-38 105-44 169h-31v-121c0-29-5-50-35-48C34-165 62-65 56 0H25l-1-190h30c1 10-1 24 2 32 10-44 99-50 107 0 11-21 27-35 58-36 85-2 47 119 55 194h-31v-121c0-29-5-49-35-48" id="aA"/><path fill="#333" d="M100-194c63 0 86 42 84 106H49c0 40 14 67 53 68 26 1 43-12 49-29l28 8c-11 28-37 45-77 45C44 4 14-33 15-96c1-61 26-98 85-98zm52 81c6-60-76-77-97-28-3 7-6 17-6 28h103" id="aB"/><g id="e"><use transform="matrix(0.06172839506172839,0,0,0.06172839506172839,0,0)" xlink:href="#W"/><use transform="matrix(0.06172839506172839,0,0,0.06172839506172839,11.11111111111111,0)" xlink:href="#aw"/><use transform="matrix(0.06172839506172839,0,0,0.06172839506172839,17.28395061728395,0)" xlink:href="#ac"/><use transform="matrix(0.06172839506172839,0,0,0.06172839506172839,29.629629629629626,0)" xlink:href="#ax"/><use transform="matrix(0.06172839506172839,0,0,0.06172839506172839,36.9753086419753,0)" xlink:href="#aw"/><use transform="matrix(0.06172839506172839,0,0,0.06172839506172839,43.148148148148145,0)" xlink:href="#ay"/><use transform="matrix(0.06172839506172839,0,0,0.06172839506172839,55.49382716049382,0)" xlink:href="#aw"/><use transform="matrix(0.06172839506172839,0,0,0.06172839506172839,61.666666666666664,0)" xlink:href="#az"/><use transform="matrix(0.06172839506172839,0,0,0.06172839506172839,66.5432098765432,0)" xlink:href="#aA"/><use transform="matrix(0.06172839506172839,0,0,0.06172839506172839,84.99999999999999,0)" xlink:href="#aB"/></g><path d="M108 0H70L1-190h34L89-25l56-165h34" id="aC"/><path d="M96-169c-40 0-48 33-48 73s9 75 48 75c24 0 41-14 43-38l32 2c-6 37-31 61-74 61-59 0-76-41-82-99-10-93 101-131 147-64 4 7 5 14 7 22l-32 3c-4-21-16-35-41-35" id="aD"/><path d="M106-169C34-169 62-67 57 0H25v-261h32l-1 103c12-21 28-36 61-36 89 0 53 116 60 194h-32v-121c2-32-8-49-39-48" id="aE"/><g id="f"><use transform="matrix(0.05925925925925927,0,0,0.05925925925925927,0,0)" xlink:href="#aC"/><use transform="matrix(0.05925925925925927,0,0,0.05925925925925927,10.666666666666668,0)" xlink:href="#ak"/><use transform="matrix(0.05925925925925927,0,0,0.05925925925925927,22.51851851851852,0)" xlink:href="#av"/><use transform="matrix(0.05925925925925927,0,0,0.05925925925925927,29.570370370370373,0)" xlink:href="#aD"/><use transform="matrix(0.05925925925925927,0,0,0.05925925925925927,40.23703703703704,0)" xlink:href="#aE"/><use transform="matrix(0.05925925925925927,0,0,0.05925925925925927,52.088888888888896,0)" xlink:href="#ak"/><use transform="matrix(0.05925925925925927,0,0,0.05925925925925927,63.94074074074075,0)" xlink:href="#av"/></g><path d="M84 4C-5 8 30-112 23-190h32v120c0 31 7 50 39 49 72-2 45-101 50-169h31l1 190h-30c-1-10 1-25-2-33-11 22-28 36-60 37" id="aF"/><g id="g"><use transform="matrix(0.05925925925925927,0,0,0.05925925925925927,0,0)" xlink:href="#aF"/><use transform="matrix(0.05925925925925927,0,0,0.05925925925925927,11.851851851851853,0)" xlink:href="#ae"/><use transform="matrix(0.05925925925925927,0,0,0.05925925925925927,22.51851851851852,0)" xlink:href="#au"/><use transform="matrix(0.05925925925925927,0,0,0.05925925925925927,34.370370370370374,0)" xlink:href="#av"/><use transform="matrix(0.05925925925925927,0,0,0.05925925925925927,41.422222222222224,0)" xlink:href="#am"/><use transform="matrix(0.05925925925925927,0,0,0.05925925925925927,53.27407407407408,0)" xlink:href="#an"/><use transform="matrix(0.05925925925925927,0,0,0.05925925925925927,57.95555555555556,0)" xlink:href="#ao"/></g><g id="h"><use transform="matrix(0.05925925925925927,0,0,0.05925925925925927,0,0)" xlink:href="#aj"/><use transform="matrix(0.05925925925925927,0,0,0.05925925925925927,4.681481481481482,0)" xlink:href="#au"/><use transform="matrix(0.05925925925925927,0,0,0.05925925925925927,16.533333333333335,0)" xlink:href="#aC"/><use transform="matrix(0.05925925925925927,0,0,0.05925925925925927,27.200000000000003,0)" xlink:href="#au"/><use transform="matrix(0.05925925925925927,0,0,0.05925925925925927,39.05185185185186,0)" xlink:href="#aj"/></g><g id="i"><use transform="matrix(0.05925925925925927,0,0,0.05925925925925927,0,0)" xlink:href="#ae"/><use transform="matrix(0.05925925925925927,0,0,0.05925925925925927,10.666666666666668,0)" xlink:href="#af"/><use transform="matrix(0.05925925925925927,0,0,0.05925925925925927,22.51851851851852,0)" xlink:href="#ag"/><use transform="matrix(0.05925925925925927,0,0,0.05925925925925927,34.370370370370374,0)" xlink:href="#ah"/><use transform="matrix(0.05925925925925927,0,0,0.05925925925925927,46.22222222222223,0)" xlink:href="#am"/><use transform="matrix(0.05925925925925927,0,0,0.05925925925925927,58.07407407407408,0)" xlink:href="#an"/><use transform="matrix(0.05925925925925927,0,0,0.05925925925925927,62.75555555555557,0)" xlink:href="#ao"/></g><g id="j"><use transform="matrix(0.05925925925925927,0,0,0.05925925925925927,0,0)" xlink:href="#ak"/><use transform="matrix(0.05925925925925927,0,0,0.05925925925925927,11.851851851851853,0)" xlink:href="#av"/><use transform="matrix(0.05925925925925927,0,0,0.05925925925925927,18.903703703703705,0)" xlink:href="#at"/><use transform="matrix(0.05925925925925927,0,0,0.05925925925925927,24.829629629629633,0)" xlink:href="#an"/><use transform="matrix(0.05925925925925927,0,0,0.05925925925925927,29.511111111111113,0)" xlink:href="#ae"/><use transform="matrix(0.05925925925925927,0,0,0.05925925925925927,40.17777777777778,0)" xlink:href="#at"/><use transform="matrix(0.05925925925925927,0,0,0.05925925925925927,46.1037037037037,0)" xlink:href="#am"/><use transform="matrix(0.05925925925925927,0,0,0.05925925925925927,57.955555555555556,0)" xlink:href="#an"/><use transform="matrix(0.05925925925925927,0,0,0.05925925925925927,62.63703703703703,0)" xlink:href="#ao"/></g><g id="k"><use transform="matrix(0.05925925925925927,0,0,0.05925925925925927,0,0)" xlink:href="#ae"/><use transform="matrix(0.05925925925925927,0,0,0.05925925925925927,10.666666666666668,0)" xlink:href="#au"/><use transform="matrix(0.05925925925925927,0,0,0.05925925925925927,22.51851851851852,0)" xlink:href="#ae"/><use transform="matrix(0.05925925925925927,0,0,0.05925925925925927,33.18518518518519,0)" xlink:href="#ae"/><use transform="matrix(0.05925925925925927,0,0,0.05925925925925927,43.85185185185186,0)" xlink:href="#an"/><use transform="matrix(0.05925925925925927,0,0,0.05925925925925927,48.533333333333346,0)" xlink:href="#af"/><use transform="matrix(0.05925925925925927,0,0,0.05925925925925927,60.3851851851852,0)" xlink:href="#ag"/><use transform="matrix(0.05925925925925927,0,0,0.05925925925925927,72.23703703703706,0)" xlink:href="#am"/><use transform="matrix(0.05925925925925927,0,0,0.05925925925925927,84.0888888888889,0)" xlink:href="#an"/><use transform="matrix(0.05925925925925927,0,0,0.05925925925925927,88.77037037037039,0)" xlink:href="#ao"/></g><g id="l"><use transform="matrix(0.05925925925925927,0,0,0.05925925925925927,0,0)" xlink:href="#aj"/><use transform="matrix(0.05925925925925927,0,0,0.05925925925925927,4.681481481481482,0)" xlink:href="#af"/><use transform="matrix(0.05925925925925927,0,0,0.05925925925925927,16.533333333333335,0)" xlink:href="#aD"/><use transform="matrix(0.05925925925925927,0,0,0.05925925925925927,27.200000000000003,0)" xlink:href="#ak"/><use transform="matrix(0.05925925925925927,0,0,0.05925925925925927,39.05185185185186,0)" xlink:href="#at"/><use transform="matrix(0.05925925925925927,0,0,0.05925925925925927,44.97777777777778,0)" xlink:href="#an"/><use transform="matrix(0.05925925925925927,0,0,0.05925925925925927,49.659259259259265,0)" xlink:href="#af"/><use transform="matrix(0.05925925925925927,0,0,0.05925925925925927,61.51111111111112,0)" xlink:href="#ag"/></g><g id="m"><use transform="matrix(0.05925925925925927,0,0,0.05925925925925927,0,0)" xlink:href="#aF"/><use transform="matrix(0.05925925925925927,0,0,0.05925925925925927,11.851851851851853,0)" xlink:href="#ae"/><use transform="matrix(0.05925925925925927,0,0,0.05925925925925927,22.51851851851852,0)" xlink:href="#au"/><use transform="matrix(0.05925925925925927,0,0,0.05925925925925927,34.370370370370374,0)" xlink:href="#av"/><use transform="matrix(0.05925925925925927,0,0,0.05925925925925927,41.422222222222224,0)" xlink:href="#am"/><use transform="matrix(0.05925925925925927,0,0,0.05925925925925927,53.27407407407408,0)" xlink:href="#ak"/><use transform="matrix(0.05925925925925927,0,0,0.05925925925925927,65.12592592592593,0)" xlink:href="#ah"/><use transform="matrix(0.05925925925925927,0,0,0.05925925925925927,76.97777777777777,0)" xlink:href="#au"/><use transform="matrix(0.05925925925925927,0,0,0.05925925925925927,88.82962962962962,0)" xlink:href="#ag"/><use transform="matrix(0.05925925925925927,0,0,0.05925925925925927,100.68148148148147,0)" xlink:href="#at"/></g><path fill="#333" d="M84 4C-5 8 30-112 23-190h32v120c0 31 7 50 39 49 72-2 45-101 50-169h31l1 190h-30c-1-10 1-25-2-33-11 22-28 36-60 37" id="aG"/><g id="n"><use transform="matrix(0.06172839506172839,0,0,0.06172839506172839,0,0)" xlink:href="#aG"/><use transform="matrix(0.06172839506172839,0,0,0.06172839506172839,12.345679012345679,0)" xlink:href="#W"/><use transform="matrix(0.06172839506172839,0,0,0.06172839506172839,23.45679012345679,0)" xlink:href="#aB"/><use transform="matrix(0.06172839506172839,0,0,0.06172839506172839,35.80246913580247,0)" xlink:href="#ax"/><use transform="matrix(0.06172839506172839,0,0,0.06172839506172839,43.148148148148145,0)" xlink:href="#W"/></g><path fill="#333" d="M85-194c31 0 48 13 60 33l-1-100h32l1 261h-30c-2-10 0-23-3-31C134-8 116 4 85 4 32 4 16-35 15-94c0-66 23-100 70-100zm9 24c-40 0-46 34-46 75 0 40 6 74 45 74 42 0 51-32 51-76 0-42-9-74-50-73" id="aH"/><g id="o"><use transform="matrix(0.06172839506172839,0,0,0.06172839506172839,0,0)" xlink:href="#aG"/><use transform="matrix(0.06172839506172839,0,0,0.06172839506172839,12.345679012345679,0)" xlink:href="#W"/><use transform="matrix(0.06172839506172839,0,0,0.06172839506172839,23.45679012345679,0)" xlink:href="#aB"/><use transform="matrix(0.06172839506172839,0,0,0.06172839506172839,35.80246913580247,0)" xlink:href="#ax"/><use transform="matrix(0.06172839506172839,0,0,0.06172839506172839,43.148148148148145,0)" xlink:href="#ay"/><use transform="matrix(0.06172839506172839,0,0,0.06172839506172839,55.49382716049382,0)" xlink:href="#az"/><use transform="matrix(0.06172839506172839,0,0,0.06172839506172839,60.37037037037037,0)" xlink:href="#aH"/></g><path fill="#333" d="M67-93c0 74 22 123 53 168H70C40 30 18-18 18-93s22-123 52-168h50c-32 44-53 94-53 168" id="aI"/><path fill="#333" d="M24-248c93 1 206-16 204 79-1 75-69 88-152 82V0H24v-248zm52 121c47 0 100 7 100-41 0-47-54-39-100-39v80" id="aJ"/><path fill="#333" d="M195 0l-88-114-31 24V0H24v-248h52v113l112-113h60L142-143 257 0h-62" id="aK"/><path fill="#333" d="M102-93c0 74-22 123-52 168H0C30 29 54-18 53-93c0-74-22-123-53-168h50c30 45 52 94 52 168" id="aL"/><g id="p"><use transform="matrix(0.06172839506172839,0,0,0.06172839506172839,0,0)" xlink:href="#aI"/><use transform="matrix(0.06172839506172839,0,0,0.06172839506172839,7.345679012345679,0)" xlink:href="#aJ"/><use transform="matrix(0.06172839506172839,0,0,0.06172839506172839,22.160493827160494,0)" xlink:href="#aK"/><use transform="matrix(0.06172839506172839,0,0,0.06172839506172839,38.148148148148145,0)" xlink:href="#aL"/></g><g id="q"><use transform="matrix(0.06172839506172839,0,0,0.06172839506172839,0,0)" xlink:href="#az"/><use transform="matrix(0.06172839506172839,0,0,0.06172839506172839,4.876543209876543,0)" xlink:href="#Y"/><use transform="matrix(0.06172839506172839,0,0,0.06172839506172839,17.22222222222222,0)" xlink:href="#aw"/><use transform="matrix(0.06172839506172839,0,0,0.06172839506172839,23.39506172839506,0)" xlink:href="#aB"/><use transform="matrix(0.06172839506172839,0,0,0.06172839506172839,35.74074074074074,0)" xlink:href="#Z"/><use transform="matrix(0.06172839506172839,0,0,0.06172839506172839,48.08641975308642,0)" xlink:href="#aB"/><use transform="matrix(0.06172839506172839,0,0,0.06172839506172839,60.432098765432094,0)" xlink:href="#ax"/></g><path fill="#333" d="M101-234c-31-9-42 10-38 44h38v23H63V0H32v-167H5v-23h27c-7-52 17-82 69-68v24" id="aM"/><g id="r"><use transform="matrix(0.06172839506172839,0,0,0.06172839506172839,0,0)" xlink:href="#aM"/><use transform="matrix(0.06172839506172839,0,0,0.06172839506172839,6.172839506172839,0)" xlink:href="#az"/><use transform="matrix(0.06172839506172839,0,0,0.06172839506172839,11.049382716049383,0)" xlink:href="#ax"/><use transform="matrix(0.06172839506172839,0,0,0.06172839506172839,18.395061728395063,0)" xlink:href="#W"/><use transform="matrix(0.06172839506172839,0,0,0.06172839506172839,29.506172839506174,0)" xlink:href="#aw"/><use transform="matrix(0.06172839506172839,0,0,0.06172839506172839,35.67901234567901,0)" xlink:href="#ay"/><use transform="matrix(0.06172839506172839,0,0,0.06172839506172839,48.02469135802469,0)" xlink:href="#Y"/><use transform="matrix(0.06172839506172839,0,0,0.06172839506172839,60.37037037037037,0)" xlink:href="#ac"/><use transform="matrix(0.06172839506172839,0,0,0.06172839506172839,72.71604938271605,0)" xlink:href="#aA"/><use transform="matrix(0.06172839506172839,0,0,0.06172839506172839,91.17283950617283,0)" xlink:href="#aB"/></g><path fill="#333" d="M108 0H70L1-190h34L89-25l56-165h34" id="aN"/><path fill="#333" d="M96-169c-40 0-48 33-48 73s9 75 48 75c24 0 41-14 43-38l32 2c-6 37-31 61-74 61-59 0-76-41-82-99-10-93 101-131 147-64 4 7 5 14 7 22l-32 3c-4-21-16-35-41-35" id="aO"/><path fill="#333" d="M106-169C34-169 62-67 57 0H25v-261h32l-1 103c12-21 28-36 61-36 89 0 53 116 60 194h-32v-121c2-32-8-49-39-48" id="aP"/><g id="s"><use transform="matrix(0.06172839506172839,0,0,0.06172839506172839,0,0)" xlink:href="#aN"/><use transform="matrix(0.06172839506172839,0,0,0.06172839506172839,11.11111111111111,0)" xlink:href="#ac"/><use transform="matrix(0.06172839506172839,0,0,0.06172839506172839,23.45679012345679,0)" xlink:href="#ax"/><use transform="matrix(0.06172839506172839,0,0,0.06172839506172839,30.80246913580247,0)" xlink:href="#aO"/><use transform="matrix(0.06172839506172839,0,0,0.06172839506172839,41.91358024691358,0)" xlink:href="#aP"/><use transform="matrix(0.06172839506172839,0,0,0.06172839506172839,54.25925925925926,0)" xlink:href="#ac"/><use transform="matrix(0.06172839506172839,0,0,0.06172839506172839,66.60493827160494,0)" xlink:href="#ax"/></g><g id="t"><use transform="matrix(0.06172839506172839,0,0,0.06172839506172839,0,0)" xlink:href="#ab"/><use transform="matrix(0.06172839506172839,0,0,0.06172839506172839,4.876543209876543,0)" xlink:href="#ac"/><use transform="matrix(0.06172839506172839,0,0,0.06172839506172839,17.22222222222222,0)" xlink:href="#W"/><use transform="matrix(0.06172839506172839,0,0,0.06172839506172839,28.333333333333332,0)" xlink:href="#aw"/><use transform="matrix(0.06172839506172839,0,0,0.06172839506172839,34.50617283950617,0)" xlink:href="#ay"/><use transform="matrix(0.06172839506172839,0,0,0.06172839506172839,46.85185185185185,0)" xlink:href="#Y"/><use transform="matrix(0.06172839506172839,0,0,0.06172839506172839,59.197530864197525,0)" xlink:href="#ac"/><use transform="matrix(0.06172839506172839,0,0,0.06172839506172839,71.5432098765432,0)" xlink:href="#aA"/><use transform="matrix(0.06172839506172839,0,0,0.06172839506172839,89.99999999999999,0)" xlink:href="#aB"/></g><g id="u"><use transform="matrix(0.06172839506172839,0,0,0.06172839506172839,0,0)" xlink:href="#Z"/><use transform="matrix(0.06172839506172839,0,0,0.06172839506172839,12.345679012345679,0)" xlink:href="#aB"/><use transform="matrix(0.06172839506172839,0,0,0.06172839506172839,24.691358024691358,0)" xlink:href="#Y"/><use transform="matrix(0.06172839506172839,0,0,0.06172839506172839,37.03703703703704,0)" xlink:href="#aH"/><use transform="matrix(0.06172839506172839,0,0,0.06172839506172839,49.382716049382715,0)" xlink:href="#aB"/><use transform="matrix(0.06172839506172839,0,0,0.06172839506172839,61.72839506172839,0)" xlink:href="#ax"/></g><g id="v"><use transform="matrix(0.06172839506172839,0,0,0.06172839506172839,0,0)" xlink:href="#aO"/><use transform="matrix(0.06172839506172839,0,0,0.06172839506172839,11.11111111111111,0)" xlink:href="#aP"/><use transform="matrix(0.06172839506172839,0,0,0.06172839506172839,23.45679012345679,0)" xlink:href="#ac"/><use transform="matrix(0.06172839506172839,0,0,0.06172839506172839,35.80246913580247,0)" xlink:href="#ax"/></g><g id="w"><use transform="matrix(0.06172839506172839,0,0,0.06172839506172839,0,0)" xlink:href="#ab"/><use transform="matrix(0.06172839506172839,0,0,0.06172839506172839,4.876543209876543,0)" xlink:href="#aB"/><use transform="matrix(0.06172839506172839,0,0,0.06172839506172839,17.22222222222222,0)" xlink:href="#aN"/><use transform="matrix(0.06172839506172839,0,0,0.06172839506172839,28.333333333333332,0)" xlink:href="#aB"/><use transform="matrix(0.06172839506172839,0,0,0.06172839506172839,40.67901234567901,0)" xlink:href="#ab"/></g><g id="x"><use transform="matrix(0.06172839506172839,0,0,0.06172839506172839,0,0)" xlink:href="#W"/><use transform="matrix(0.06172839506172839,0,0,0.06172839506172839,11.11111111111111,0)" xlink:href="#X"/><use transform="matrix(0.06172839506172839,0,0,0.06172839506172839,23.45679012345679,0)" xlink:href="#Y"/><use transform="matrix(0.06172839506172839,0,0,0.06172839506172839,35.80246913580247,0)" xlink:href="#Z"/><use transform="matrix(0.06172839506172839,0,0,0.06172839506172839,48.148148148148145,0)" xlink:href="#W"/></g><g id="y"><use transform="matrix(0.06172839506172839,0,0,0.06172839506172839,0,0)" xlink:href="#W"/><use transform="matrix(0.06172839506172839,0,0,0.06172839506172839,11.11111111111111,0)" xlink:href="#X"/><use transform="matrix(0.06172839506172839,0,0,0.06172839506172839,23.45679012345679,0)" xlink:href="#Y"/><use transform="matrix(0.06172839506172839,0,0,0.06172839506172839,35.80246913580247,0)" xlink:href="#Z"/><use transform="matrix(0.06172839506172839,0,0,0.06172839506172839,48.148148148148145,0)" xlink:href="#ay"/><use transform="matrix(0.06172839506172839,0,0,0.06172839506172839,60.49382716049382,0)" xlink:href="#az"/><use transform="matrix(0.06172839506172839,0,0,0.06172839506172839,65.37037037037037,0)" xlink:href="#aH"/></g><g id="z"><use transform="matrix(0.06172839506172839,0,0,0.06172839506172839,0,0)" xlink:href="#aI"/><use transform="matrix(0.06172839506172839,0,0,0.06172839506172839,7.345679012345679,0)" xlink:href="#aJ"/><use transform="matrix(0.06172839506172839,0,0,0.06172839506172839,22.160493827160494,0)" xlink:href="#aK"/><use transform="matrix(0.06172839506172839,0,0,0.06172839506172839,38.148148148148145,0)" xlink:href="#aL"/></g><g id="A"><use transform="matrix(0.06172839506172839,0,0,0.06172839506172839,0,0)" xlink:href="#aw"/><use transform="matrix(0.06172839506172839,0,0,0.06172839506172839,6.172839506172839,0)" xlink:href="#az"/><use transform="matrix(0.06172839506172839,0,0,0.06172839506172839,11.049382716049383,0)" xlink:href="#aw"/><use transform="matrix(0.06172839506172839,0,0,0.06172839506172839,17.22222222222222,0)" xlink:href="#ab"/><use transform="matrix(0.06172839506172839,0,0,0.06172839506172839,22.098765432098766,0)" xlink:href="#aB"/></g><g id="B"><use transform="matrix(0.06172839506172839,0,0,0.06172839506172839,0,0)" xlink:href="#ac"/><use transform="matrix(0.06172839506172839,0,0,0.06172839506172839,12.345679012345679,0)" xlink:href="#ax"/><use transform="matrix(0.06172839506172839,0,0,0.06172839506172839,19.691358024691358,0)" xlink:href="#aw"/><use transform="matrix(0.06172839506172839,0,0,0.06172839506172839,25.864197530864196,0)" xlink:href="#az"/><use transform="matrix(0.06172839506172839,0,0,0.06172839506172839,30.74074074074074,0)" xlink:href="#W"/><use transform="matrix(0.06172839506172839,0,0,0.06172839506172839,41.85185185185185,0)" xlink:href="#aw"/><use transform="matrix(0.06172839506172839,0,0,0.06172839506172839,48.02469135802469,0)" xlink:href="#ay"/><use transform="matrix(0.06172839506172839,0,0,0.06172839506172839,60.37037037037037,0)" xlink:href="#az"/><use transform="matrix(0.06172839506172839,0,0,0.06172839506172839,65.24691358024691,0)" xlink:href="#aH"/></g><g id="C"><use transform="matrix(0.06172839506172839,0,0,0.06172839506172839,0,0)" xlink:href="#ad"/><use transform="matrix(0.06172839506172839,0,0,0.06172839506172839,11.11111111111111,0)" xlink:href="#aB"/><use transform="matrix(0.06172839506172839,0,0,0.06172839506172839,23.45679012345679,0)" xlink:href="#ac"/><use transform="matrix(0.06172839506172839,0,0,0.06172839506172839,35.80246913580247,0)" xlink:href="#ax"/></g><g id="D"><use transform="matrix(0.06172839506172839,0,0,0.06172839506172839,0,0)" xlink:href="#aH"/><use transform="matrix(0.06172839506172839,0,0,0.06172839506172839,12.345679012345679,0)" xlink:href="#aG"/><use transform="matrix(0.06172839506172839,0,0,0.06172839506172839,24.691358024691358,0)" xlink:href="#ax"/><use transform="matrix(0.06172839506172839,0,0,0.06172839506172839,32.03703703703704,0)" xlink:href="#ac"/><use transform="matrix(0.06172839506172839,0,0,0.06172839506172839,44.382716049382715,0)" xlink:href="#aw"/><use transform="matrix(0.06172839506172839,0,0,0.06172839506172839,50.55555555555556,0)" xlink:href="#az"/><use transform="matrix(0.06172839506172839,0,0,0.06172839506172839,55.4320987654321,0)" xlink:href="#X"/><use transform="matrix(0.06172839506172839,0,0,0.06172839506172839,67.77777777777779,0)" xlink:href="#Y"/></g><g id="E"><use transform="matrix(0.06172839506172839,0,0,0.06172839506172839,0,0)" xlink:href="#aM"/><use transform="matrix(0.06172839506172839,0,0,0.06172839506172839,6.172839506172839,0)" xlink:href="#ab"/><use transform="matrix(0.06172839506172839,0,0,0.06172839506172839,11.049382716049383,0)" xlink:href="#X"/><use transform="matrix(0.06172839506172839,0,0,0.06172839506172839,23.395061728395063,0)" xlink:href="#ac"/><use transform="matrix(0.06172839506172839,0,0,0.06172839506172839,35.74074074074074,0)" xlink:href="#aw"/></g><g id="F"><use transform="matrix(0.06172839506172839,0,0,0.06172839506172839,0,0)" xlink:href="#ac"/><use transform="matrix(0.06172839506172839,0,0,0.06172839506172839,12.345679012345679,0)" xlink:href="#ax"/><use transform="matrix(0.06172839506172839,0,0,0.06172839506172839,19.691358024691358,0)" xlink:href="#aw"/><use transform="matrix(0.06172839506172839,0,0,0.06172839506172839,25.864197530864196,0)" xlink:href="#az"/><use transform="matrix(0.06172839506172839,0,0,0.06172839506172839,30.74074074074074,0)" xlink:href="#W"/><use transform="matrix(0.06172839506172839,0,0,0.06172839506172839,41.85185185185185,0)" xlink:href="#aw"/><use transform="matrix(0.06172839506172839,0,0,0.06172839506172839,48.02469135802469,0)" xlink:href="#W"/></g><g id="G"><use transform="matrix(0.06172839506172839,0,0,0.06172839506172839,0,0)" xlink:href="#ac"/><use transform="matrix(0.06172839506172839,0,0,0.06172839506172839,12.345679012345679,0)" xlink:href="#ax"/><use transform="matrix(0.06172839506172839,0,0,0.06172839506172839,19.691358024691358,0)" xlink:href="#aw"/><use transform="matrix(0.06172839506172839,0,0,0.06172839506172839,25.864197530864196,0)" xlink:href="#az"/><use transform="matrix(0.06172839506172839,0,0,0.06172839506172839,30.74074074074074,0)" xlink:href="#W"/><use transform="matrix(0.06172839506172839,0,0,0.06172839506172839,41.85185185185185,0)" xlink:href="#aw"/><use transform="matrix(0.06172839506172839,0,0,0.06172839506172839,48.02469135802469,0)" xlink:href="#ay"/><use transform="matrix(0.06172839506172839,0,0,0.06172839506172839,60.37037037037037,0)" xlink:href="#az"/><use transform="matrix(0.06172839506172839,0,0,0.06172839506172839,65.24691358024691,0)" xlink:href="#aH"/></g><g id="H"><use transform="matrix(0.06172839506172839,0,0,0.06172839506172839,0,0)" xlink:href="#Y"/><use transform="matrix(0.06172839506172839,0,0,0.06172839506172839,12.345679012345679,0)" xlink:href="#ac"/><use transform="matrix(0.06172839506172839,0,0,0.06172839506172839,24.691358024691358,0)" xlink:href="#aA"/><use transform="matrix(0.06172839506172839,0,0,0.06172839506172839,43.148148148148145,0)" xlink:href="#aB"/></g><g id="I"><use transform="matrix(0.06172839506172839,0,0,0.06172839506172839,0,0)" xlink:href="#ab"/><use transform="matrix(0.06172839506172839,0,0,0.06172839506172839,4.876543209876543,0)" xlink:href="#X"/><use transform="matrix(0.06172839506172839,0,0,0.06172839506172839,17.22222222222222,0)" xlink:href="#aO"/><use transform="matrix(0.06172839506172839,0,0,0.06172839506172839,28.333333333333332,0)" xlink:href="#ac"/><use transform="matrix(0.06172839506172839,0,0,0.06172839506172839,40.67901234567901,0)" xlink:href="#aw"/><use transform="matrix(0.06172839506172839,0,0,0.06172839506172839,46.851851851851855,0)" xlink:href="#az"/><use transform="matrix(0.06172839506172839,0,0,0.06172839506172839,51.7283950617284,0)" xlink:href="#X"/><use transform="matrix(0.06172839506172839,0,0,0.06172839506172839,64.07407407407408,0)" xlink:href="#Y"/></g><g id="J"><use transform="matrix(0.05925925925925927,0,0,0.05925925925925927,0,0)" xlink:href="#aj"/><use transform="matrix(0.05925925925925927,0,0,0.05925925925925927,4.681481481481482,0)" xlink:href="#ak"/><use transform="matrix(0.05925925925925927,0,0,0.05925925925925927,16.533333333333335,0)" xlink:href="#at"/><use transform="matrix(0.05925925925925927,0,0,0.05925925925925927,22.459259259259262,0)" xlink:href="#at"/><use transform="matrix(0.05925925925925927,0,0,0.05925925925925927,28.38518518518519,0)" xlink:href="#an"/><use transform="matrix(0.05925925925925927,0,0,0.05925925925925927,33.06666666666667,0)" xlink:href="#at"/><use transform="matrix(0.05925925925925927,0,0,0.05925925925925927,38.992592592592594,0)" xlink:href="#aF"/><use transform="matrix(0.05925925925925927,0,0,0.05925925925925927,50.84444444444445,0)" xlink:href="#ao"/><use transform="matrix(0.05925925925925927,0,0,0.05925925925925927,62.6962962962963,0)" xlink:href="#au"/></g><path d="M101-234c-31-9-42 10-38 44h38v23H63V0H32v-167H5v-23h27c-7-52 17-82 69-68v24" id="aQ"/><g id="K"><use transform="matrix(0.05925925925925927,0,0,0.05925925925925927,0,0)" xlink:href="#aQ"/><use transform="matrix(0.05925925925925927,0,0,0.05925925925925927,5.9259259259259265,0)" xlink:href="#aj"/><use transform="matrix(0.05925925925925927,0,0,0.05925925925925927,10.607407407407408,0)" xlink:href="#af"/><use transform="matrix(0.05925925925925927,0,0,0.05925925925925927,22.459259259259262,0)" xlink:href="#ak"/><use transform="matrix(0.05925925925925927,0,0,0.05925925925925927,34.31111111111112,0)" xlink:href="#at"/></g><g id="L"><use transform="matrix(0.05925925925925927,0,0,0.05925925925925927,0,0)" xlink:href="#aj"/><use transform="matrix(0.05925925925925927,0,0,0.05925925925925927,4.681481481481482,0)" xlink:href="#af"/><use transform="matrix(0.05925925925925927,0,0,0.05925925925925927,16.533333333333335,0)" xlink:href="#ag"/><use transform="matrix(0.05925925925925927,0,0,0.05925925925925927,28.385185185185186,0)" xlink:href="#ah"/><use transform="matrix(0.05925925925925927,0,0,0.05925925925925927,40.23703703703704,0)" xlink:href="#an"/><use transform="matrix(0.05925925925925927,0,0,0.05925925925925927,44.918518518518525,0)" xlink:href="#at"/><use transform="matrix(0.05925925925925927,0,0,0.05925925925925927,50.84444444444445,0)" xlink:href="#aF"/><use transform="matrix(0.05925925925925927,0,0,0.05925925925925927,62.6962962962963,0)" xlink:href="#ao"/><use transform="matrix(0.05925925925925927,0,0,0.05925925925925927,74.54814814814816,0)" xlink:href="#au"/></g><g id="M"><use transform="matrix(0.06172839506172839,0,0,0.06172839506172839,0,0)" xlink:href="#aw"/><use transform="matrix(0.06172839506172839,0,0,0.06172839506172839,6.172839506172839,0)" xlink:href="#az"/><use transform="matrix(0.06172839506172839,0,0,0.06172839506172839,11.049382716049383,0)" xlink:href="#aA"/><use transform="matrix(0.06172839506172839,0,0,0.06172839506172839,29.50617283950617,0)" xlink:href="#aB"/></g><g id="N"><use transform="matrix(0.06172839506172839,0,0,0.06172839506172839,0,0)" xlink:href="#W"/><use transform="matrix(0.06172839506172839,0,0,0.06172839506172839,11.11111111111111,0)" xlink:href="#aw"/><use transform="matrix(0.06172839506172839,0,0,0.06172839506172839,17.28395061728395,0)" xlink:href="#ac"/><use transform="matrix(0.06172839506172839,0,0,0.06172839506172839,29.629629629629626,0)" xlink:href="#ax"/><use transform="matrix(0.06172839506172839,0,0,0.06172839506172839,36.9753086419753,0)" xlink:href="#aw"/><use transform="matrix(0.06172839506172839,0,0,0.06172839506172839,43.148148148148145,0)" xlink:href="#ay"/><use transform="matrix(0.06172839506172839,0,0,0.06172839506172839,55.49382716049382,0)" xlink:href="#aw"/><use transform="matrix(0.06172839506172839,0,0,0.06172839506172839,61.666666666666664,0)" xlink:href="#az"/><use transform="matrix(0.06172839506172839,0,0,0.06172839506172839,66.5432098765432,0)" xlink:href="#aA"/><use transform="matrix(0.06172839506172839,0,0,0.06172839506172839,84.99999999999999,0)" xlink:href="#aB"/></g><g id="O"><use transform="matrix(0.06172839506172839,0,0,0.06172839506172839,0,0)" xlink:href="#aI"/><use transform="matrix(0.06172839506172839,0,0,0.06172839506172839,7.345679012345679,0)" xlink:href="#aJ"/><use transform="matrix(0.06172839506172839,0,0,0.06172839506172839,22.160493827160494,0)" xlink:href="#aK"/><use transform="matrix(0.06172839506172839,0,0,0.06172839506172839,38.148148148148145,0)" xlink:href="#aL"/></g><g id="P"><use transform="matrix(0.06172839506172839,0,0,0.06172839506172839,0,0)" xlink:href="#aw"/><use transform="matrix(0.06172839506172839,0,0,0.06172839506172839,6.172839506172839,0)" xlink:href="#az"/><use transform="matrix(0.06172839506172839,0,0,0.06172839506172839,11.049382716049383,0)" xlink:href="#aA"/><use transform="matrix(0.06172839506172839,0,0,0.06172839506172839,29.50617283950617,0)" xlink:href="#aB"/><use transform="matrix(0.06172839506172839,0,0,0.06172839506172839,41.85185185185185,0)" xlink:href="#W"/><use transform="matrix(0.06172839506172839,0,0,0.06172839506172839,52.96296296296296,0)" xlink:href="#aw"/><use transform="matrix(0.06172839506172839,0,0,0.06172839506172839,59.135802469135804,0)" xlink:href="#ac"/><use transform="matrix(0.06172839506172839,0,0,0.06172839506172839,71.48148148148148,0)" xlink:href="#aA"/><use transform="matrix(0.06172839506172839,0,0,0.06172839506172839,89.93827160493827,0)" xlink:href="#aa"/></g><g id="Q"><use transform="matrix(0.06172839506172839,0,0,0.06172839506172839,0,0)" xlink:href="#aP"/><use transform="matrix(0.06172839506172839,0,0,0.06172839506172839,12.345679012345679,0)" xlink:href="#X"/><use transform="matrix(0.06172839506172839,0,0,0.06172839506172839,24.691358024691358,0)" xlink:href="#aG"/><use transform="matrix(0.06172839506172839,0,0,0.06172839506172839,37.03703703703704,0)" xlink:href="#ax"/></g><g id="R"><use transform="matrix(0.06172839506172839,0,0,0.06172839506172839,0,0)" xlink:href="#aH"/><use transform="matrix(0.06172839506172839,0,0,0.06172839506172839,12.345679012345679,0)" xlink:href="#ac"/><use transform="matrix(0.06172839506172839,0,0,0.06172839506172839,24.691358024691358,0)" xlink:href="#ad"/></g><path fill="#333" d="M206 0h-36l-40-164L89 0H53L-1-190h32L70-26l43-164h34l41 164 42-164h31" id="aR"/><path fill="#333" d="M143 0L79-87 56-68V0H24v-261h32v163l83-92h37l-77 82L181 0h-38" id="aS"/><g id="S"><use transform="matrix(0.06172839506172839,0,0,0.06172839506172839,0,0)" xlink:href="#aR"/><use transform="matrix(0.06172839506172839,0,0,0.06172839506172839,15.987654320987653,0)" xlink:href="#aB"/><use transform="matrix(0.06172839506172839,0,0,0.06172839506172839,28.333333333333332,0)" xlink:href="#aB"/><use transform="matrix(0.06172839506172839,0,0,0.06172839506172839,40.67901234567901,0)" xlink:href="#aS"/></g><g id="T"><use transform="matrix(0.06172839506172839,0,0,0.06172839506172839,0,0)" xlink:href="#aA"/><use transform="matrix(0.06172839506172839,0,0,0.06172839506172839,18.456790123456788,0)" xlink:href="#X"/><use transform="matrix(0.06172839506172839,0,0,0.06172839506172839,30.80246913580247,0)" xlink:href="#Y"/><use transform="matrix(0.06172839506172839,0,0,0.06172839506172839,43.148148148148145,0)" xlink:href="#aw"/><use transform="matrix(0.06172839506172839,0,0,0.06172839506172839,49.32098765432099,0)" xlink:href="#aP"/></g><g id="U"><use transform="matrix(0.06172839506172839,0,0,0.06172839506172839,0,0)" xlink:href="#az"/><use transform="matrix(0.06172839506172839,0,0,0.06172839506172839,4.876543209876543,0)" xlink:href="#Y"/><use transform="matrix(0.06172839506172839,0,0,0.06172839506172839,17.22222222222222,0)" xlink:href="#aw"/><use transform="matrix(0.06172839506172839,0,0,0.06172839506172839,23.39506172839506,0)" xlink:href="#aB"/><use transform="matrix(0.06172839506172839,0,0,0.06172839506172839,35.74074074074074,0)" xlink:href="#Z"/><use transform="matrix(0.06172839506172839,0,0,0.06172839506172839,48.08641975308642,0)" xlink:href="#aB"/><use transform="matrix(0.06172839506172839,0,0,0.06172839506172839,60.432098765432094,0)" xlink:href="#ax"/></g><g id="V"><use transform="matrix(0.06172839506172839,0,0,0.06172839506172839,0,0)" xlink:href="#aR"/><use transform="matrix(0.06172839506172839,0,0,0.06172839506172839,15.987654320987653,0)" xlink:href="#aB"/><use transform="matrix(0.06172839506172839,0,0,0.06172839506172839,28.333333333333332,0)" xlink:href="#aB"/><use transform="matrix(0.06172839506172839,0,0,0.06172839506172839,40.67901234567901,0)" xlink:href="#aS"/><use transform="matrix(0.06172839506172839,0,0,0.06172839506172839,51.79012345679013,0)" xlink:href="#aH"/><use transform="matrix(0.06172839506172839,0,0,0.06172839506172839,64.13580246913581,0)" xlink:href="#ac"/><use transform="matrix(0.06172839506172839,0,0,0.06172839506172839,76.4814814814815,0)" xlink:href="#ad"/></g></defs></g></svg>